# xmcd
#
# Track frame offsets:
#  150
#  18323
#  34727
#  51506
#  69918
#  93250
#  116366
#  128582
#  139727
#  152242
#  175742
#  196026
#  209109
#  229241
#
# Disc length: 3242 seconds
#
# Revision: 0
# Processed by: cddbd v1.5.2PL0 Copyright (c) Steve Scherf et al.
# Submitted via: AltoMP3_Maker 3.0
#
DISCID=bc0ca80e
DTITLE=Colin Hodgkinson Frank Diez - the last fair deal 20 years electric blues duo
DYEAR=1900
DGENRE=
TTITLE0=white lady
TTITLE1=all alone with the blues
TTITLE2=you gonna suffer
TTITLE3=steady rollin' man
TTITLE4=goin' down slow
TTITLE5=louise
TTITLE6=last fair deal
TTITLE7=bitch
TTITLE8=cajun moon
TTITLE9=black jack
TTITLE10=all in love is fair?
TTITLE11=lucky at cards
TTITLE12=my jug and i
TTITLE13=roberta
EXTD=
EXTT0=
EXTT1=
EXTT2=
EXTT3=
EXTT4=
EXTT5=
EXTT6=
EXTT7=
EXTT8=
EXTT9=
EXTT10=
EXTT11=
EXTT12=
EXTT13=
PLAYORDER=
